<?xml version="1.0" encoding="UTF-8"?>
<svg version="1.1" xmlns="http://www.w3.org/2000/svg" width="64" height="64">
<path d="M0 0 C6.17412421 4.82848176 9.95600332 11.16705864 12.015625 18.6796875 C13.00998113 29.73322778 12.34611798 39.32036289 5.390625 48.4296875 C-0.20427879 54.45277271 -7.3554308 58.36802569 -15.5234375 58.91796875 C-26.24057766 59.20921677 -35.18145834 58.141757 -43.3828125 50.5234375 C-49.67031808 43.28513839 -52.18084903 36.68286235 -52.171875 27.2421875 C-52.17251953 26.54222656 -52.17316406 25.84226562 -52.17382812 25.12109375 C-52.10815149 18.52954738 -51.22562055 12.15189642 -49.984375 5.6796875 C-48.61925781 5.27556641 -48.61925781 5.27556641 -47.2265625 4.86328125 C-44.22542056 3.76768365 -42.51168452 2.76816957 -40.109375 0.7421875 C-28.52497186 -8.13051078 -12.11009444 -8.05750378 0 0 Z " fill="#FCDD61" transform="translate(51.984375,5.3203125)"/>
<path d="M0 0 C0.66 0.33 1.32 0.66 2 1 C1.01 1.33 0.02 1.66 -1 2 C-1.33 4.31 -1.66 6.62 -2 9 C-1.01 9 -0.02 9 1 9 C1.12375 8.195625 1.2475 7.39125 1.375 6.5625 C1.684375 5.2940625 1.684375 5.2940625 2 4 C2.66 3.67 3.32 3.34 4 3 C3.67 7.95 3.34 12.9 3 18 C4.32 18 5.64 18 7 18 C7 13.71 7 9.42 7 5 C7.99 4.67 8.98 4.34 10 4 C10.33 5.65 10.66 7.3 11 9 C11.99 9 12.98 9 14 9 C13.67 7.02 13.34 5.04 13 3 C16 5 16 5 16.43237305 6.87939453 C16.45855713 7.62302246 16.48474121 8.36665039 16.51171875 9.1328125 C16.54716797 9.93847656 16.58261719 10.74414062 16.61914062 11.57421875 C16.65297852 12.83685547 16.65297852 12.83685547 16.6875 14.125 C16.72166016 14.97449219 16.75582031 15.82398438 16.79101562 16.69921875 C16.87359173 18.79901105 16.93846978 20.89948564 17 23 C15.35 23 13.7 23 12 23 C12 35.54 12 48.08 12 61 C4.26338463 60.03292308 1.81884978 59.19761517 -4 55 C-4.86625 54.443125 -5.7325 53.88625 -6.625 53.3125 C-12.16395011 47.91931174 -15.79038988 41.28482074 -16.16796875 33.56640625 C-16.18267844 32.23183602 -16.18876868 30.89715069 -16.1875 29.5625 C-16.18814453 28.86253906 -16.18878906 28.16257812 -16.18945312 27.44140625 C-16.12377649 20.84985988 -15.24124555 14.47220892 -14 8 C-13.10023437 7.73445312 -12.20046875 7.46890625 -11.2734375 7.1953125 C-8.18122278 6.06617443 -6.17998614 4.90136832 -3.625 2.875 C-2.93664063 2.33617187 -2.24828125 1.79734375 -1.5390625 1.2421875 C-0.77722656 0.62730469 -0.77722656 0.62730469 0 0 Z " fill="#F7536C" transform="translate(16,3)"/>
<path d="M0 0 C8.57357714 1.94452265 15.02137348 6.70188868 19.8125 14 C23.37086992 19.82941147 24.32525642 25.36446474 24.25 32.125 C24.26160156 33.17880859 24.26160156 33.17880859 24.2734375 34.25390625 C24.25812411 38.30429727 23.86134679 40.27730641 22 44 C22 38.06 22 32.12 22 26 C19.36 26 16.72 26 14 26 C13.89042969 25.37351562 13.78085937 24.74703125 13.66796875 24.1015625 C13.43013672 22.87566406 13.43013672 22.87566406 13.1875 21.625 C13.03667969 20.81289063 12.88585937 20.00078125 12.73046875 19.1640625 C12.12455058 16.64179359 12.12455058 16.64179359 9 15 C5.79620876 14.75753217 5.79620876 14.75753217 2.3125 14.875 C1.13300781 14.89304687 -0.04648437 14.91109375 -1.26171875 14.9296875 C-2.61716797 14.96449219 -2.61716797 14.96449219 -4 15 C-4.09796875 14.38511719 -4.1959375 13.77023437 -4.296875 13.13671875 C-5.15281022 8.2401742 -5.15281022 8.2401742 -7.5625 4 C-11.26707361 2.48017493 -15.02789145 2.24613493 -19 2 C-13.69325634 -1.5378291 -6.23011675 -0.6192959 0 0 Z " fill="#444666" transform="translate(40,0)"/>
<path d="M0 0 C0.66 0.33 1.32 0.66 2 1 C1.01 1.33 0.02 1.66 -1 2 C-1.33 4.31 -1.66 6.62 -2 9 C-3.32 9 -4.64 9 -6 9 C-5.67 23.52 -5.34 38.04 -5 53 C-9.21273799 50.89363101 -9.93715827 50.02404969 -12.1875 46.125 C-12.95126953 44.82949219 -12.95126953 44.82949219 -13.73046875 43.5078125 C-16.07060369 38.88514594 -16.19237151 34.68732416 -16.1875 29.5625 C-16.18814453 28.86253906 -16.18878906 28.16257812 -16.18945312 27.44140625 C-16.12377649 20.84985988 -15.24124555 14.47220892 -14 8 C-13.10023437 7.73445312 -12.20046875 7.46890625 -11.2734375 7.1953125 C-8.18122278 6.06617443 -6.17998614 4.90136832 -3.625 2.875 C-2.93664063 2.33617187 -2.24828125 1.79734375 -1.5390625 1.2421875 C-0.77722656 0.62730469 -0.77722656 0.62730469 0 0 Z " fill="#D03353" transform="translate(16,3)"/>
<path d="M0 0 C3.07365786 1.80803404 4.43019732 2.86039464 6 6 C6.04022391 8.3329866 6.04320247 10.66706666 6 13 C6.66 12.67 7.32 12.34 8 12 C13.14183814 11.42040472 17.5229211 11.24697939 22.1875 13.625 C25.14196061 19.12640941 24.37219567 24.88772 24 31 C23.01 31 22.02 31 21 31 C20.94392578 29.62714844 20.94392578 29.62714844 20.88671875 28.2265625 C20.82097656 27.03804687 20.75523438 25.84953125 20.6875 24.625 C20.62949219 23.44164063 20.57148437 22.25828125 20.51171875 21.0390625 C20.25841797 19.53472656 20.25841797 19.53472656 20 18 C19.01 17.34 18.02 16.68 17 16 C15.35 16.66 13.7 17.32 12 18 C11.67 22.29 11.34 26.58 11 31 C10.01 31 9.02 31 8 31 C8 26.38 8 21.76 8 17 C7.34 19.31 6.68 21.62 6 24 C5.01 24 4.02 24 3 24 C2.34 18.06 1.68 12.12 1 6 C0.67 6 0.34 6 0 6 C0 7.32 0 8.64 0 10 C-0.99 10 -1.98 10 -3 10 C-3.33 8.35 -3.66 6.7 -4 5 C-4.99 5.495 -4.99 5.495 -6 6 C-6.46954261 9.04581269 -6.46954261 9.04581269 -6.625 12.5625 C-6.69976562 13.76003906 -6.77453125 14.95757812 -6.8515625 16.19140625 C-6.90054687 17.11824219 -6.94953125 18.04507812 -7 19 C-8.32 19 -9.64 19 -11 19 C-11 14.38 -11 9.76 -11 5 C-11.66 6.65 -12.32 8.3 -13 10 C-13.99 10 -14.98 10 -16 10 C-15.39337835 3.5698105 -15.39337835 3.5698105 -13.82421875 1.296875 C-9.93410201 -1.46868979 -4.53642879 -0.56934936 0 0 Z " fill="#EBE2EA" transform="translate(30,2)"/>
<path d="M0 0 C2.31 0 4.62 0 7 0 C7 12.87 7 25.74 7 39 C3.04 38.505 3.04 38.505 -1 38 C-0.67 25.46 -0.34 12.92 0 0 Z " fill="#F48D2D" transform="translate(21,25)"/>
<path d="M0 0 C0.78246094 -0.03738281 1.56492187 -0.07476562 2.37109375 -0.11328125 C4.5625 0.3125 4.5625 0.3125 6.3359375 1.87890625 C8.01800132 5.21624943 7.85320885 7.84698125 7.75 11.5625 C7.72292969 12.82578125 7.69585937 14.0890625 7.66796875 15.390625 C7.63316406 16.35484375 7.59835938 17.3190625 7.5625 18.3125 C6.5725 18.3125 5.5825 18.3125 4.5625 18.3125 C4.52511719 17.39726563 4.48773438 16.48203125 4.44921875 15.5390625 C4.38347656 14.35054687 4.31773438 13.16203125 4.25 11.9375 C4.16298828 10.16246094 4.16298828 10.16246094 4.07421875 8.3515625 C3.90535156 7.34867188 3.73648438 6.34578125 3.5625 5.3125 C2.5725 4.6525 1.5825 3.9925 0.5625 3.3125 C-1.0875 3.9725 -2.7375 4.6325 -4.4375 5.3125 C-4.7675 9.6025 -5.0975 13.8925 -5.4375 18.3125 C-6.4275 18.3125 -7.4175 18.3125 -8.4375 18.3125 C-8.49168326 16.22945462 -8.53037551 14.14600232 -8.5625 12.0625 C-8.58570313 10.90234375 -8.60890625 9.7421875 -8.6328125 8.546875 C-8.44675052 5.46568867 -8.15445953 3.8339091 -6.4375 1.3125 C-4.12316978 0.15533489 -2.57689188 0.08039564 0 0 Z " fill="#EFEEF3" transform="translate(46.4375,14.6875)"/>
<path d="M0 0 C0.66 0.33 1.32 0.66 2 1 C1.01 1.33 0.02 1.66 -1 2 C-1.33 4.31 -1.66 6.62 -2 9 C-3.32 9 -4.64 9 -6 9 C-5.67 23.52 -5.34 38.04 -5 53 C-5.99 52.67 -6.98 52.34 -8 52 C-7.67 37.48 -7.34 22.96 -7 8 C-7.66 7.67 -8.32 7.34 -9 7 C-6.03 4.69 -3.06 2.38 0 0 Z " fill="#F24762" transform="translate(16,3)"/>
<path d="M0 0 C1.75 1.9375 1.75 1.9375 2 5.125 C1.9175 6.053125 1.835 6.98125 1.75 7.9375 C-1.55 7.9375 -4.85 7.9375 -8.25 7.9375 C-8.375 5.0625 -8.375 5.0625 -8.25 1.9375 C-5.45990032 -0.85259968 -3.68413468 -1.73973026 0 0 Z " fill="#9C9EB3" transform="translate(49.25,18.0625)"/>
<path d="M0 0 C0.33 0 0.66 0 1 0 C1 2.31 1 4.62 1 7 C1.66 6.67 2.32 6.34 3 6 C4.87379605 5.92966231 6.75001102 5.9156978 8.625 5.9375 C10.12933594 5.95103516 10.12933594 5.95103516 11.6640625 5.96484375 C12.43492188 5.97644531 13.20578125 5.98804688 14 6 C14 6.33 14 6.66 14 7 C9.545 7.495 9.545 7.495 5 8 C5 8.66 5 9.32 5 10 C4.01 10.66 3.02 11.32 2 12 C1.26656572 15.06556598 1.26656572 15.06556598 1 18 C0.01 18 -0.98 18 -2 18 C-2.85298376 14.32612505 -3.10789471 10.9552607 -3.0625 7.1875 C-3.05347656 6.21167969 -3.04445313 5.23585938 -3.03515625 4.23046875 C-3.02355469 3.49441406 -3.01195313 2.75835937 -3 2 C-2.67 2 -2.34 2 -2 2 C-1.67 4.31 -1.34 6.62 -1 9 C-0.67 6.03 -0.34 3.06 0 0 Z " fill="#CFBFD2" transform="translate(35,8)"/>
<path d="M0 0 C1.08667969 0.02707031 2.17335938 0.05414063 3.29296875 0.08203125 C4.54013672 0.13423828 4.54013672 0.13423828 5.8125 0.1875 C5.8125 0.5175 5.8125 0.8475 5.8125 1.1875 C4.719375 1.290625 3.62625 1.39375 2.5 1.5 C-1.1493448 2.18038632 -1.99918 2.42330631 -4.1875 5.1875 C-5.1775 5.6825 -5.1775 5.6825 -6.1875 6.1875 C-6.83963292 8.21213255 -6.83963292 8.21213255 -7.1875 10.1875 C-8.1775 10.1875 -9.1675 10.1875 -10.1875 10.1875 C-9.58251779 3.77468861 -9.58251779 3.77468861 -8.03125 1.46875 C-5.34342305 -0.39906195 -3.22979255 -0.10418686 0 0 Z " fill="#B4B1CB" transform="translate(24.1875,1.8125)"/>
<path d="M0 0 C0.66 0.33 1.32 0.66 2 1 C1.01 1.33 0.02 1.66 -1 2 C-1.33 4.31 -1.66 6.62 -2 9 C-4.31 8.67 -6.62 8.34 -9 8 C-6.14723863 5.06799526 -3.34920216 2.35684596 0 0 Z " fill="#474768" transform="translate(16,3)"/>
<path d="M0 0 C0.99 0 1.98 0 3 0 C3.33 2.31 3.66 4.62 4 7 C2.35 7 0.7 7 -1 7 C-1.04254356 5.00045254 -1.04080783 2.99958364 -1 1 C-0.67 0.67 -0.34 0.34 0 0 Z " fill="#A96A7E" transform="translate(42,19)"/>
<path d="M0 0 C1.65 0 3.3 0 5 0 C5.33 1.98 5.66 3.96 6 6 C5.01 6 4.02 6 3 6 C2.87625 5.195625 2.7525 4.39125 2.625 3.5625 C2.315625 2.2940625 2.315625 2.2940625 2 1 C1.34 0.67 0.68 0.34 0 0 Z " fill="#C5BBD4" transform="translate(24,6)"/>
<path d="M0 0 C0.66 0 1.32 0 2 0 C2.33 1.65 2.66 3.3 3 5 C1.68 5 0.36 5 -1 5 C-0.67 3.35 -0.34 1.7 0 0 Z " fill="#5A5072" transform="translate(24,7)"/>
</svg>
