<?xml version="1.0" standalone="no"?>
<!DOCTYPE svg PUBLIC "-//W3C//DTD SVG 20010904//EN"
 "http://www.w3.org/TR/2001/REC-SVG-20010904/DTD/svg10.dtd">
<svg version="1.0" xmlns="http://www.w3.org/2000/svg"
 width="64.000000pt" height="64.000000pt" viewBox="0 0 64.000000 64.000000"
 preserveAspectRatio="xMidYMid meet">

<g transform="translate(0.000000,64.000000) scale(0.100000,-0.100000)"
fill="#000000" stroke="none">
<path d="M524 521 c108 -124 108 -278 0 -402 l-38 -44 41 39 c116 109 116 303
0 412 l-41 39 38 -44z"/>
<path d="M450 359 c0 -18 5 -20 42 -17 31 2 44 8 46 21 3 14 -4 17 -42 17 -40
0 -46 -3 -46 -21z"/>
<path d="M450 215 c0 -101 6 -120 28 -92 8 9 32 152 32 189 0 4 -13 8 -30 8
l-30 0 0 -105z"/>
</g>
</svg>
